<svg width="79" height="79" viewBox="0 0 79 79" fill="none" xmlns="http://www.w3.org/2000/svg">
<rect x="0.5" y="0.470215" width="78" height="78" rx="39" fill="white"/>
<g clip-path="url(#clip0_2_700)">
<path d="M53.18 54.8102C52.6733 52.2769 52.2089 49.9547 51.7867 47.8435L51.5333 46.7035C51.28 45.5213 50.6467 44.6769 49.6333 44.1702C49.38 44.0013 49.1267 43.8747 48.8733 43.7902L44.5667 42.2702L43.1733 41.3835V40.2435C44.1867 39.6524 44.9889 38.8713 45.58 37.9002C46.1711 36.9291 46.5511 35.8947 46.72 34.7969C47.5645 34.7969 48.2189 34.4802 48.6833 33.8469C49.1478 33.2135 49.2111 32.5169 48.8733 31.7569V27.3235C48.8733 25.888 48.5356 24.7058 47.86 23.7769C47.5222 23.2702 47.0578 22.8902 46.4667 22.6369C45.2 21.0324 43.4689 20.0402 41.2733 19.6602C39.0778 19.2802 37.0089 19.5547 35.0667 20.4835C34.4756 20.8213 33.8845 21.2435 33.2933 21.7502C33.2089 21.8347 33.1456 21.9613 33.1033 22.1302C33.0611 22.2991 33.1033 22.4258 33.23 22.5102C33.3567 22.5947 33.4833 22.658 33.61 22.7002C33.7367 22.7424 33.8845 22.6791 34.0533 22.5102C35.2356 21.5813 36.5867 20.9902 38.1067 20.7369C39.6267 20.4835 41.0622 20.6102 42.4133 21.1169C43.7645 21.6236 44.8622 22.3835 45.7067 23.3969C45.7911 23.4813 45.8756 23.5235 45.96 23.5235C46.2978 23.6924 46.5933 23.9458 46.8467 24.2836C47.4378 25.0435 47.7333 26.0569 47.7333 27.3235V30.7435C47.3956 30.6591 47.0578 30.6169 46.72 30.6169V28.7169C46.72 28.548 46.6356 28.3791 46.4667 28.2102C46.2978 28.0413 46.1289 27.9147 45.96 27.8302C45.2 27.8302 44.6089 27.4502 44.1867 26.6902C44.0178 26.3524 43.7645 26.1624 43.4267 26.1202C43.0889 26.078 42.7933 26.1835 42.54 26.4369C41.3578 27.3658 40.0489 27.9569 38.6133 28.2102C37.5156 28.4635 36.3756 28.5058 35.1933 28.3369C34.4333 28.2524 33.7578 28.4213 33.1667 28.8435C32.5756 29.2658 32.2378 29.8569 32.1533 30.6169C31.7311 30.6169 31.3511 30.6591 31.0133 30.7435V30.1102C31.0133 28.928 31.0556 28.0413 31.14 27.4502C31.3933 26.3524 31.8156 25.3391 32.4067 24.4102C32.4911 24.2413 32.5122 24.0935 32.47 23.9669C32.4278 23.8402 32.3433 23.7347 32.2167 23.6502C32.09 23.5658 31.9633 23.5447 31.8367 23.5869C31.71 23.6291 31.6045 23.6924 31.52 23.7769C30.76 24.8747 30.2956 26.0569 30.1267 27.3235C29.9578 28.0835 29.9156 29.0969 30 30.3635L29.8733 31.7569C29.5356 32.5169 29.62 33.2135 30.1267 33.8469C30.6333 34.4802 31.3089 34.7969 32.1533 34.7969C32.3222 36.4013 32.9556 37.7947 34.0533 38.9769L34.18 39.1035C34.6867 39.6102 35.2356 40.0324 35.8267 40.3702V41.3835L34.4333 42.2702L31.3933 43.4102C30.1267 43.8324 29.4089 44.0858 29.24 44.1702L29.1133 44.2969C28.2689 44.8035 27.72 45.5213 27.4667 46.4502L25.82 54.8102C25.82 55.0635 25.82 55.3169 25.82 55.5702C25.9045 56.1613 26.1367 56.6258 26.5167 56.9635C26.8967 57.3013 27.4245 57.4702 28.1 57.4702H43.4267C43.5956 57.4702 43.7222 57.4069 43.8067 57.2802C43.8911 57.1535 43.9333 57.0269 43.9333 56.9002C43.9333 56.7735 43.8911 56.6469 43.8067 56.5202C43.7222 56.3935 43.5956 56.3302 43.4267 56.3302H32.0267V51.2635C32.0267 51.0947 31.9633 50.968 31.8367 50.8835C31.71 50.7991 31.5833 50.7569 31.4567 50.7569C31.33 50.7569 31.2033 50.7991 31.0767 50.8835C30.95 50.968 30.8867 51.0947 30.8867 51.2635V56.3302H28.1C27.1711 56.3302 26.7911 55.908 26.96 55.0635L28.2267 48.4769C28.48 47.2947 28.6489 46.6191 28.7333 46.4502V46.3235C28.9867 45.7324 29.4511 45.268 30.1267 44.9302L32.5333 44.1702L33.9267 46.5769C33.9267 46.7458 34.0111 46.8513 34.18 46.8935C34.3489 46.9358 34.4967 46.9147 34.6233 46.8302C34.75 46.7458 34.8345 46.6402 34.8767 46.5135C34.9189 46.3869 34.8978 46.2391 34.8133 46.0702L33.5467 43.7902L34.4333 43.5369L38.8667 51.7702C39.0356 51.9391 39.2467 52.0235 39.5 52.0235C39.7533 52.0235 39.9222 51.9391 40.0067 51.7702L44.5667 43.5369L45.4533 43.7902L40.8933 52.1502C40.5556 52.6569 40.0911 52.9102 39.5 52.9102C38.9089 52.9102 38.4445 52.6569 38.1067 52.1502L36.08 48.3502C35.9956 48.2658 35.89 48.2024 35.7633 48.1602C35.6367 48.118 35.4889 48.118 35.32 48.1602C35.1511 48.2024 35.0456 48.308 35.0033 48.4769C34.9611 48.6458 34.9822 48.7724 35.0667 48.8569L37.0933 52.6569C37.4311 53.248 37.9167 53.6491 38.55 53.8602C39.1833 54.0713 39.8167 54.0713 40.45 53.8602C41.0833 53.6491 41.5689 53.248 41.9067 52.6569L46.4667 44.1702L48.62 44.9302L49.5067 45.3102C49.9289 45.7324 50.2245 46.1969 50.3933 46.7035L52.04 55.3169C52.1245 55.9924 51.7445 56.3302 50.9 56.3302H48.1133V51.2635C48.1133 51.0947 48.05 50.968 47.9233 50.8835C47.7967 50.7991 47.67 50.7569 47.5433 50.7569C47.4167 50.7569 47.29 50.7991 47.1633 50.8835C47.0367 50.968 46.9733 51.0947 46.9733 51.2635V56.3302H45.96C45.7911 56.3302 45.6645 56.3935 45.58 56.5202C45.4956 56.6469 45.4533 56.7735 45.4533 56.9002C45.4533 57.0269 45.4956 57.1535 45.58 57.2802C45.6645 57.4069 45.7911 57.4702 45.96 57.4702H50.9C51.5756 57.4702 52.1033 57.3013 52.4833 56.9635C52.8633 56.6258 53.0956 56.1613 53.18 55.5702C53.18 55.3169 53.18 55.0635 53.18 54.8102ZM46.72 31.7569C47.0578 31.6724 47.3533 31.7358 47.6067 31.9469C47.86 32.158 47.9867 32.4113 47.9867 32.7069C47.9867 33.0024 47.86 33.2347 47.6067 33.4035C47.3533 33.5724 47.0578 33.6569 46.72 33.6569V31.7569ZM32.0267 33.6569C31.6889 33.6569 31.4145 33.5724 31.2033 33.4035C30.9922 33.2347 30.8867 33.0024 30.8867 32.7069C30.8867 32.4113 30.9922 32.158 31.2033 31.9469C31.4145 31.7358 31.6889 31.6724 32.0267 31.7569V33.6569ZM35.0667 29.4769C36.4178 29.6458 37.6845 29.6035 38.8667 29.3502C40.4711 29.0124 41.9067 28.2947 43.1733 27.1969C43.7645 28.2102 44.5667 28.8013 45.58 28.9702V30.9969L44.9467 31.3769C44.6933 30.9547 44.3133 30.7435 43.8067 30.7435H41.2733C40.9356 30.7435 40.6611 30.8069 40.45 30.9335C40.2389 31.0602 40.0489 31.2924 39.88 31.6302H38.8667C38.7822 31.2924 38.6133 31.0602 38.36 30.9335C38.1067 30.8069 37.8533 30.7435 37.6 30.7435H34.94C34.4333 30.7435 34.0533 30.9547 33.8 31.3769L33.1667 30.9969C33.1667 30.4902 33.3567 30.0891 33.7367 29.7935C34.1167 29.498 34.56 29.3924 35.0667 29.4769ZM44.1867 32.1369V33.2769C44.1867 33.5302 44.1022 33.7413 43.9333 33.9102C43.7645 34.0791 43.5533 34.1635 43.3 34.1635H41.78C41.5267 34.1635 41.3156 34.0791 41.1467 33.9102C40.9778 33.7413 40.8933 33.5302 40.8933 33.2769V32.1369C40.8933 31.8835 41.02 31.7569 41.2733 31.7569H43.8067C44.06 31.7569 44.1867 31.8835 44.1867 32.1369ZM37.8533 32.1369V33.2769C37.8533 33.5302 37.7689 33.7413 37.6 33.9102C37.4311 34.0791 37.22 34.1635 36.9667 34.1635H35.5733C35.32 34.1635 35.1089 34.0791 34.94 33.9102C34.7711 33.7413 34.6867 33.5302 34.6867 33.2769V32.1369C34.6867 31.8835 34.7711 31.7569 34.94 31.7569H37.6C37.7689 31.7569 37.8533 31.8835 37.8533 32.1369ZM34.6867 38.0902C34.0111 37.2458 33.5467 36.3591 33.2933 35.4302C33.2089 34.8391 33.1667 34.0369 33.1667 33.0235V32.2635L33.5467 32.5169V33.2769C33.5467 33.7835 33.7367 34.2269 34.1167 34.6069C34.4967 34.9869 34.9822 35.1769 35.5733 35.1769H36.9667C37.5578 35.1769 38.0433 34.9869 38.4233 34.6069C38.8033 34.2269 38.9933 33.7835 38.9933 33.2769V32.6435H39.7533V33.2769C39.7533 33.7835 39.9645 34.2269 40.3867 34.6069C40.8089 34.9869 41.2733 35.1769 41.78 35.1769H43.3C43.8067 35.1769 44.25 34.9869 44.63 34.6069C45.01 34.2269 45.2 33.7835 45.2 33.2769V32.5169L45.58 32.2635V33.9102C45.58 35.5991 44.9889 37.0558 43.8067 38.2802C42.6245 39.5047 41.1467 40.1591 39.3733 40.2435C38.9511 40.2435 38.5289 40.2013 38.1067 40.1169L37.7267 39.9902C36.5445 39.6524 35.5311 39.0191 34.6867 38.0902ZM39.5 44.2969L36.9667 41.3835V40.8769C38.1489 41.2991 39.3311 41.4258 40.5133 41.2569L41.2733 41.0035L42.0333 40.8769V41.3835L39.5 44.2969ZM40.1333 46.1969L39.88 46.7035H39.12L38.8667 46.1969L39.5 45.8169L40.1333 46.1969ZM37.98 47.7169L37.7267 47.0835L37.98 46.9569L38.2333 47.3369L37.98 47.7169ZM37.0933 46.0702L35.4467 43.0302L36.3333 42.3969L38.6133 45.0569L37.0933 46.0702ZM39.5 50.5035L38.74 49.1102L39.12 47.8435H39.88L40.26 49.1102L39.5 50.5035ZM41.02 47.7169L40.7667 47.3369L41.02 46.9569L41.2733 47.0835L41.02 47.7169ZM41.9067 46.0702C41.4845 45.8169 40.9778 45.4791 40.3867 45.0569L42.6667 42.3969L43.5533 43.0302L41.9067 46.0702Z" fill="#0E2A46"/>
</g>
<defs>
<clipPath id="clip0_2_700">
<rect width="38" height="38" fill="white" transform="matrix(1 0 0 -1 20.5 57.4702)"/>
</clipPath>
</defs>
</svg>
