<svg width="79" height="79" viewBox="0 0 79 79" fill="none" xmlns="http://www.w3.org/2000/svg">
<rect x="0.5" y="0.470215" width="78" height="78" rx="39" fill="white"/>
<path d="M57.74 39.9901L52.5467 30.8701C52.3778 30.6168 52.1878 30.469 51.9767 30.4268C51.7656 30.3846 51.5756 30.4057 51.4067 30.4901L49.5067 31.6301V24.5368L45.7067 20.2301L45.4533 20.1035H30.6333C30.2956 20.1035 30.0211 20.209 29.81 20.4201C29.5989 20.6312 29.4933 20.8635 29.4933 21.1168V32.8968L27.5933 31.7568C27.4245 31.6724 27.2345 31.6512 27.0233 31.6935C26.8122 31.7357 26.6222 31.8412 26.4533 32.0101L21.26 41.2568C21.0911 41.4257 21.0489 41.6368 21.1333 41.8901C21.2178 42.1435 21.3445 42.3124 21.5133 42.3968L25.82 44.9301C26.4956 45.5212 27.0867 46.1968 27.5933 46.9568L26.2 49.4901C25.9467 49.9124 25.8411 50.3768 25.8833 50.8835C25.9256 51.3901 26.1156 51.8124 26.4533 52.1501C26.7911 52.4879 27.1922 52.699 27.6567 52.7835C28.1211 52.8679 28.6067 52.8257 29.1133 52.6568C29.2822 53.2479 29.6833 53.6912 30.3167 53.9868C30.95 54.2824 31.5622 54.2612 32.1533 53.9235C32.3222 54.5146 32.6811 54.9368 33.23 55.1901C33.7789 55.4435 34.3067 55.5279 34.8133 55.4435C35.0667 55.359 35.32 55.2324 35.5733 55.0635C35.7422 55.4857 36.0167 55.8235 36.3967 56.0768C36.7767 56.3301 37.1778 56.4568 37.6 56.4568C38.4445 56.4568 39.0778 56.0768 39.5 55.3168L41.5267 56.5835C41.9489 56.8368 42.4133 56.9424 42.92 56.9001C43.4267 56.8579 43.8911 56.6679 44.3133 56.3301C44.7356 55.9924 45.0311 55.5912 45.2 55.1268C45.3689 54.6624 45.3689 54.1768 45.2 53.6701V53.4168H45.4533C46.1289 53.2479 46.6356 52.8468 46.9733 52.2135C47.3111 51.5801 47.3956 50.9257 47.2267 50.2501L47.1 50.1235C47.86 49.9546 48.4511 49.5324 48.8733 48.8568C49.2956 48.1812 49.38 47.4635 49.1267 46.7035C49.8867 46.5346 50.4356 46.1124 50.7733 45.4368L51.0267 45.1835C51.28 45.0146 51.6178 44.7401 52.04 44.3601C52.4622 43.9801 52.7156 43.7901 52.8 43.7901C52.8845 43.7901 52.9689 43.7479 53.0533 43.6635L57.4867 41.1301C57.6556 41.0457 57.7822 40.8979 57.8667 40.6868C57.9511 40.4757 57.9089 40.2435 57.74 39.9901ZM45.96 22.1301L47.6067 23.9035H45.96V22.1301ZM30.6333 21.2435H44.6933V24.5368C44.6933 24.7057 44.7567 24.8535 44.8833 24.9801C45.01 25.1068 45.1578 25.1701 45.3267 25.1701H48.3667V32.2635L47.1 33.0235C45.8333 32.939 44.4822 33.0235 43.0467 33.2768C41.4422 33.4457 40.1333 33.7835 39.12 34.2901L38.4867 34.5435C38.1489 34.6279 37.8533 34.7546 37.6 34.9235C35.4889 34.1635 33.5889 33.9101 31.9 34.1635L30.6333 33.5301V21.2435ZM25.9467 43.5368L22.4 41.5101L27.34 33.0235L30.8867 35.0501L25.9467 43.5368ZM29.24 50.7568L28.9867 51.1368C28.9022 51.3901 28.7122 51.559 28.4167 51.6435C28.1211 51.7279 27.8467 51.6857 27.5933 51.5168C27.34 51.3479 27.1711 51.1368 27.0867 50.8835C27.0022 50.6301 27.0445 50.3768 27.2133 50.1235L29.3667 46.3235C29.4511 46.0701 29.6411 45.9012 29.9367 45.8168C30.2322 45.7324 30.5067 45.7746 30.76 45.9435C31.0133 46.1124 31.1822 46.3446 31.2667 46.6401C31.3511 46.9357 31.3089 47.2101 31.14 47.4635L29.24 50.7568ZM32.28 52.1501L32.1533 52.4035C31.9845 52.6568 31.7522 52.8257 31.4567 52.9101C31.1611 52.9946 30.8867 52.9735 30.6333 52.8468C30.38 52.7201 30.2111 52.509 30.1267 52.2135C30.0422 51.9179 30.0845 51.6435 30.2533 51.3901L32.1533 47.9701C32.3222 47.7168 32.5545 47.569 32.85 47.5268C33.1456 47.4846 33.42 47.5268 33.6733 47.6535C33.9267 47.7801 34.0956 47.9912 34.18 48.2868C34.2645 48.5824 34.2222 48.8568 34.0533 49.1101L32.28 52.1501ZM35.1933 53.7968C35.0245 54.0501 34.8133 54.219 34.56 54.3035C34.3067 54.3879 34.0322 54.3457 33.7367 54.1768C33.4411 54.0079 33.2722 53.7757 33.23 53.4801C33.1878 53.1846 33.2089 52.9101 33.2933 52.6568L35.0667 49.7435C35.2356 49.4901 35.4678 49.3212 35.7633 49.2368C36.0589 49.1524 36.3333 49.1735 36.5867 49.3001C36.84 49.4268 36.9878 49.6379 37.03 49.9335C37.0722 50.229 37.0511 50.5035 36.9667 50.7568L35.5733 53.0368L35.1933 53.7968ZM37.0933 55.0635C36.84 54.8946 36.6711 54.6835 36.5867 54.4301C36.5022 54.1768 36.5022 53.9235 36.5867 53.6701L37.98 51.3901C38.1489 51.1368 38.36 50.9679 38.6133 50.8835C38.8667 50.799 39.12 50.8201 39.3733 50.9468C39.6267 51.0735 39.7956 51.2846 39.88 51.5801C39.9645 51.8757 39.9222 52.1501 39.7533 52.4035L38.4867 54.6835C38.3178 54.9368 38.1067 55.1057 37.8533 55.1901C37.6 55.2746 37.3467 55.2324 37.0933 55.0635ZM43.9333 55.0635C43.7645 55.3168 43.49 55.5068 43.11 55.6335C42.73 55.7601 42.4133 55.739 42.16 55.5701L40.1333 54.3035L40.8933 53.0368C41.0622 52.6146 41.1467 52.1924 41.1467 51.7701L43.4267 53.1635C43.7645 53.3324 43.9756 53.6068 44.06 53.9868C44.1445 54.3668 44.1022 54.7257 43.9333 55.0635ZM49.76 44.9301C49.5911 45.2679 49.3378 45.479 49 45.5635C48.6622 45.6479 48.3245 45.6057 47.9867 45.4368L43.0467 42.5235C42.7933 42.439 42.5822 42.439 42.4133 42.5235C42.2445 42.6079 42.16 42.7768 42.16 43.0301C42.16 43.2835 42.2445 43.4524 42.4133 43.5368L47.3533 46.4501C47.6911 46.619 47.9022 46.8724 47.9867 47.2101C48.0711 47.5479 48.0289 47.8857 47.86 48.2235C47.6911 48.5612 47.4167 48.7724 47.0367 48.8568C46.6567 48.9412 46.2978 48.899 45.96 48.7301L42.16 46.5768C41.9911 46.4924 41.8011 46.4924 41.59 46.5768C41.3789 46.6612 41.2733 46.8301 41.2733 47.0835C41.2733 47.3368 41.4 47.5057 41.6533 47.5901L45.4533 49.7435C45.7067 49.9968 45.8967 50.2924 46.0233 50.6301C46.15 50.9679 46.1078 51.3057 45.8967 51.6435C45.6856 51.9812 45.4111 52.1924 45.0733 52.2768C44.7356 52.3612 44.3978 52.319 44.06 52.1501L41.5267 50.6301C41.2733 50.5457 41.02 50.5879 40.7667 50.7568C40.5133 50.3346 40.1545 50.0179 39.69 49.8068C39.2256 49.5957 38.74 49.5746 38.2333 49.7435V49.6168C38.0645 49.0257 37.7056 48.5824 37.1567 48.2868C36.6078 47.9912 36.0378 47.9279 35.4467 48.0968H35.32V47.9701C35.1511 47.379 34.7922 46.9357 34.2433 46.6401C33.6945 46.3446 33.1245 46.239 32.5333 46.3235L32.4067 46.4501C32.3222 45.9435 32.1111 45.5424 31.7733 45.2468C31.4356 44.9512 31.0345 44.7612 30.57 44.6768C30.1056 44.5924 29.6622 44.6557 29.24 44.8668C28.8178 45.0779 28.48 45.3946 28.2267 45.8168C27.8889 45.2257 27.4667 44.719 26.96 44.2968L32.1533 35.3035C33.5045 35.1346 35.0667 35.3457 36.84 35.9368L35.8267 39.6101C35.6578 40.1168 35.6156 40.6235 35.7 41.1301C35.7845 41.6368 35.9956 42.1224 36.3333 42.5868C36.6711 43.0512 37.0089 43.2835 37.3467 43.2835C37.6845 43.2835 38.0222 43.0301 38.36 42.5235L38.4867 42.3968C38.9933 41.7212 39.4156 41.0035 39.7533 40.2435C40.3445 39.3146 40.7245 38.8079 40.8933 38.7235L41.6533 38.5968L49.2533 43.0301C49.5911 43.199 49.8233 43.4735 49.95 43.8535C50.0767 44.2335 50.0133 44.5924 49.76 44.9301ZM51.1533 43.6635C50.9 42.9035 50.4778 42.3546 49.8867 42.0168L42.0333 37.4568C41.8645 37.3724 41.6956 37.3301 41.5267 37.3301L40.64 37.5835C40.3022 37.6679 40.0067 37.879 39.7533 38.2168C39.5 38.5546 39.1622 39.0612 38.74 39.7368C38.4022 40.4124 37.98 41.0879 37.4733 41.7635L37.3467 42.0168C37.0933 41.5946 36.9456 41.2357 36.9033 40.9401C36.8611 40.6446 36.8822 40.3279 36.9667 39.9901L37.8533 36.5701C37.9378 36.4012 38.0222 36.2324 38.1067 36.0635H38.2333C38.4022 35.8946 38.5711 35.7679 38.74 35.6835L39.6267 35.4301C40.5556 34.9235 41.78 34.5857 43.3 34.4168C44.5667 34.2479 45.7911 34.1635 46.9733 34.1635L51.9133 42.9035L51.1533 43.6635ZM53.0533 42.3968L48.1133 33.7835L51.66 31.7568L56.6 40.3701L53.0533 42.3968ZM36.08 31.1235C36.2489 31.1235 36.3756 31.0601 36.46 30.9335C36.5445 30.8068 36.5867 30.659 36.5867 30.4901V26.5635C36.5867 26.3946 36.5445 26.2468 36.46 26.1201C36.3756 25.9935 36.2489 25.9301 36.08 25.9301H32.0267C31.8578 25.9301 31.7311 25.9935 31.6467 26.1201C31.5622 26.2468 31.52 26.3946 31.52 26.5635V30.4901C31.52 30.659 31.5622 30.8068 31.6467 30.9335C31.7311 31.0601 31.8578 31.1235 32.0267 31.1235H36.08ZM32.66 27.0701H35.4467V29.8568H32.66V27.0701ZM35.1933 28.3368L34.3067 29.4768C34.1378 29.5612 33.9689 29.6035 33.8 29.6035C33.6311 29.6035 33.5045 29.5612 33.42 29.4768L32.9133 28.9701C32.8289 28.8857 32.7867 28.759 32.7867 28.5901C32.7867 28.4212 32.85 28.2735 32.9767 28.1468C33.1033 28.0201 33.2511 27.9568 33.42 27.9568C33.5889 27.9568 33.7156 27.999 33.8 28.0835V28.2101L34.3067 27.5768C34.4756 27.4079 34.6656 27.3446 34.8767 27.3868C35.0878 27.429 35.2356 27.5557 35.32 27.7668C35.4045 27.9779 35.3622 28.1679 35.1933 28.3368ZM38.36 30.7435C38.36 30.5746 38.4233 30.4268 38.55 30.3001C38.6767 30.1735 38.8245 30.1101 38.9933 30.1101H46.9733C47.1422 30.1101 47.2689 30.1735 47.3533 30.3001C47.4378 30.4268 47.48 30.5746 47.48 30.7435C47.48 30.9124 47.4378 31.0601 47.3533 31.1868C47.2689 31.3135 47.1422 31.3768 46.9733 31.3768H38.9933C38.8245 31.3768 38.6767 31.3135 38.55 31.1868C38.4233 31.0601 38.36 30.9124 38.36 30.7435ZM38.36 26.5635C38.36 26.3946 38.4233 26.2468 38.55 26.1201C38.6767 25.9935 38.8245 25.9301 38.9933 25.9301H42.6667C42.8356 25.9301 42.9833 25.9935 43.11 26.1201C43.2367 26.2468 43.3 26.3946 43.3 26.5635C43.3 26.7324 43.2367 26.859 43.11 26.9435C42.9833 27.0279 42.8356 27.0701 42.6667 27.0701H38.9933C38.8245 27.0701 38.6767 27.0279 38.55 26.9435C38.4233 26.859 38.36 26.7324 38.36 26.5635ZM38.36 28.5901C38.36 28.4212 38.4233 28.2946 38.55 28.2101C38.6767 28.1257 38.8245 28.0835 38.9933 28.0835H44.1867C44.3556 28.0835 44.5033 28.1257 44.63 28.2101C44.7567 28.2946 44.82 28.4212 44.82 28.5901C44.82 28.759 44.7567 28.9068 44.63 29.0335C44.5033 29.1601 44.3556 29.2235 44.1867 29.2235H38.9933C38.8245 29.2235 38.6767 29.1601 38.55 29.0335C38.4233 28.9068 38.36 28.759 38.36 28.5901Z" fill="#0E2A46"/>
</svg>
