<svg width="79" height="79" viewBox="0 0 79 79" fill="none" xmlns="http://www.w3.org/2000/svg">
<rect x="0.5" y="0.470215" width="78" height="78" rx="39" fill="white"/>
<path d="M57.36 25.8033H54.5733V24.41C54.5733 24.2411 54.51 24.0933 54.3833 23.9666C54.2567 23.84 54.1089 23.7766 53.94 23.7766C51.1533 23.7766 48.8733 23.9033 47.1 24.1566C45.6644 24.3255 44.0178 24.6633 42.16 25.17V25.0433C42.16 24.2833 41.9067 23.65 41.4 23.1433C40.8933 22.6366 40.26 22.3833 39.5 22.3833C38.74 22.3833 38.1067 22.6366 37.6 23.1433C37.0933 23.65 36.84 24.2833 36.84 25.0433V25.17C34.9822 24.6633 33.3356 24.3255 31.9 24.1566C30.1267 23.9033 27.8467 23.7766 25.06 23.7766C24.8911 23.7766 24.7433 23.84 24.6167 23.9666C24.49 24.0933 24.4267 24.2411 24.4267 24.41V25.8033H21.64C21.4711 25.8033 21.3444 25.8666 21.26 25.9933C21.1756 26.12 21.1333 26.2678 21.1333 26.4366V52.0233C21.1333 52.1922 21.1756 52.34 21.26 52.4666C21.3444 52.5933 21.4711 52.6566 21.64 52.6566H36.3333C36.3333 53.2478 36.5233 53.7122 36.9033 54.05C37.2833 54.3878 37.7267 54.5566 38.2333 54.5566H40.7667C41.3578 54.5566 41.8222 54.3878 42.16 54.05C42.4978 53.7122 42.6667 53.2478 42.6667 52.6566H57.36C57.5289 52.6566 57.6556 52.5933 57.74 52.4666C57.8244 52.34 57.8667 52.1922 57.8667 52.0233V26.4366C57.8667 26.2678 57.8244 26.12 57.74 25.9933C57.6556 25.8666 57.5289 25.8033 57.36 25.8033ZM53.4333 24.9166V48.6033C47.6911 48.6033 43.2578 49.3633 40.1333 50.8833V43.03H51.66C51.9133 43.03 52.0822 42.9666 52.1667 42.84C52.2511 42.7133 52.2933 42.5655 52.2933 42.3966C52.2089 41.4678 51.9133 40.6655 51.4067 39.99C50.9 39.3144 50.2667 38.8078 49.5067 38.47C50.0133 37.9633 50.2667 37.3511 50.2667 36.6333C50.2667 35.9155 50.0133 35.2822 49.5067 34.7333C49 34.1844 48.3667 33.91 47.6067 33.91L47.1 34.0366C46.5933 33.4455 46.0022 33.0233 45.3267 32.77C45.9178 32.1789 46.2133 31.5244 46.2133 30.8066C46.2133 30.0889 45.9389 29.4555 45.39 28.9066C44.8411 28.3578 44.1867 28.0833 43.4267 28.0833L43.0467 28.21C42.6244 27.6189 42.0756 27.1966 41.4 26.9433L41.78 26.4366C43.8067 25.93 45.4533 25.55 46.72 25.2966C48.4933 25.1278 50.7311 25.0011 53.4333 24.9166ZM35.1933 40.4966C34.6867 39.5678 33.9689 38.8922 33.04 38.47C33.3778 38.1322 33.5889 37.71 33.6733 37.2033H36.7133C36.7978 37.71 37.0511 38.1322 37.4733 38.47C36.46 38.8922 35.7 39.5678 35.1933 40.4966ZM29.62 36.57C29.62 36.1478 29.7678 35.81 30.0633 35.5566C30.3589 35.3033 30.7178 35.1766 31.14 35.1766C31.5622 35.1766 31.9211 35.3033 32.2167 35.5566C32.5122 35.81 32.66 36.1478 32.66 36.57C32.66 36.9922 32.5122 37.3511 32.2167 37.6466C31.9211 37.9422 31.5622 38.09 31.14 38.09C30.7178 38.09 30.3589 37.9422 30.0633 37.6466C29.7678 37.3511 29.62 36.9922 29.62 36.57ZM33.6733 30.87C33.6733 30.4478 33.8211 30.0889 34.1167 29.7933C34.4122 29.4978 34.7711 29.35 35.1933 29.35C35.6156 29.35 35.9744 29.4978 36.27 29.7933C36.5656 30.0889 36.7133 30.4478 36.7133 30.87C36.7133 31.2922 36.5656 31.63 36.27 31.8833C35.9744 32.1366 35.6156 32.2633 35.1933 32.2633C34.7711 32.2633 34.4122 32.1366 34.1167 31.8833C33.8211 31.63 33.6733 31.2922 33.6733 30.87ZM39.5 27.7033C40.4289 27.7033 41.2311 27.9989 41.9067 28.59C41.3156 29.0122 40.9778 29.5611 40.8933 30.2366H37.8533C37.6844 29.6455 37.3889 29.1389 36.9667 28.7166C37.6422 28.0411 38.4867 27.7033 39.5 27.7033ZM43.4267 40.4966C42.92 39.5678 42.2022 38.8922 41.2733 38.47C41.6111 38.1322 41.8644 37.71 42.0333 37.2033H44.9467C45.1156 37.71 45.3689 38.1322 45.7067 38.47C44.6933 38.8922 43.9333 39.5678 43.4267 40.4966ZM39.3733 38.09C38.9511 38.09 38.5922 37.9422 38.2967 37.6466C38.0011 37.3511 37.8533 36.9922 37.8533 36.57C37.8533 36.1478 38.0011 35.81 38.2967 35.5566C38.5922 35.3033 38.9511 35.1766 39.3733 35.1766C39.7956 35.1766 40.1544 35.3033 40.45 35.5566C40.7456 35.81 40.8933 36.1478 40.8933 36.57C40.8933 36.9922 40.7456 37.3511 40.45 37.6466C40.1544 37.9422 39.7956 38.09 39.3733 38.09ZM37.0933 32.77C37.5156 32.3478 37.7689 31.8833 37.8533 31.3766H38.8667V33.91V34.0366C38.36 33.4455 37.7689 33.0233 37.0933 32.77ZM40.8933 31.3766C40.9778 31.8833 41.1889 32.3478 41.5267 32.77C41.02 33.0233 40.5556 33.3611 40.1333 33.7833V31.3766H40.8933ZM47.6067 39.3566C48.3667 39.3566 49.0633 39.5889 49.6967 40.0533C50.33 40.5178 50.7733 41.0878 51.0267 41.7633H44.1867C44.44 41.0878 44.8833 40.5178 45.5167 40.0533C46.15 39.5889 46.8467 39.3566 47.6067 39.3566ZM47.6067 38.09C47.1844 38.09 46.8256 37.9422 46.53 37.6466C46.2344 37.3511 46.0867 36.9922 46.0867 36.57C46.0867 36.1478 46.2344 35.81 46.53 35.5566C46.8256 35.3033 47.1844 35.1766 47.6067 35.1766C48.0289 35.1766 48.3878 35.3033 48.6833 35.5566C48.9789 35.81 49.1267 36.1478 49.1267 36.57C49.1267 36.9922 48.9789 37.3511 48.6833 37.6466C48.3878 37.9422 48.0289 38.09 47.6067 38.09ZM44.9467 36.0633H42.0333C41.8644 35.3878 41.5267 34.8811 41.02 34.5433C41.6956 33.8678 42.5189 33.53 43.49 33.53C44.4611 33.53 45.2844 33.8678 45.96 34.5433C45.4533 34.8811 45.1156 35.3878 44.9467 36.0633ZM43.4267 32.2633C43.0044 32.2633 42.6456 32.1366 42.35 31.8833C42.0544 31.63 41.9067 31.2922 41.9067 30.87C41.9067 30.4478 42.0544 30.0889 42.35 29.7933C42.6456 29.4978 43.0044 29.35 43.4267 29.35C43.8489 29.35 44.2078 29.4978 44.5033 29.7933C44.7989 30.0889 44.9467 30.4478 44.9467 30.87C44.9467 31.2922 44.7989 31.63 44.5033 31.8833C44.2078 32.1366 43.8489 32.2633 43.4267 32.2633ZM37.7267 34.5433C37.22 34.8811 36.8822 35.3878 36.7133 36.0633H33.6733C33.5889 35.3878 33.2933 34.8811 32.7867 34.5433C33.4622 33.8678 34.2856 33.53 35.2567 33.53C36.2278 33.53 37.0511 33.8678 37.7267 34.5433ZM31.14 39.3566C31.9 39.3566 32.5967 39.5889 33.23 40.0533C33.8633 40.5178 34.3067 41.0878 34.56 41.7633H27.72C27.9733 41.0878 28.3956 40.5178 28.9867 40.0533C29.5778 39.5889 30.2956 39.3566 31.14 39.3566ZM39.3733 39.3566C40.1333 39.3566 40.83 39.5889 41.4633 40.0533C42.0967 40.5178 42.54 41.0878 42.7933 41.7633H35.9533C36.2067 41.0878 36.6289 40.5178 37.22 40.0533C37.8111 39.5889 38.5289 39.3566 39.3733 39.3566ZM39.5 23.5233C39.9222 23.5233 40.2811 23.6711 40.5767 23.9666C40.8722 24.2622 41.02 24.6211 41.02 25.0433C41.02 25.4655 40.8722 25.8244 40.5767 26.12C40.2811 26.4155 39.9222 26.5633 39.5 26.5633C39.0778 26.5633 38.7189 26.4155 38.4233 26.12C38.1278 25.8244 37.98 25.4655 37.98 25.0433C37.98 24.6211 38.1278 24.2622 38.4233 23.9666C38.7189 23.6711 39.0778 23.5233 39.5 23.5233ZM25.5667 24.9166C28.2689 25.0011 30.5067 25.1278 32.28 25.2966C33.5467 25.55 35.1933 25.93 37.22 26.4366L37.6 26.9433C36.9244 27.1966 36.3333 27.6189 35.8267 28.21C35.6578 28.1255 35.4467 28.0833 35.1933 28.0833C34.4333 28.0833 33.8 28.3578 33.2933 28.9066C32.7867 29.4555 32.5333 30.0889 32.5333 30.8066C32.5333 31.5244 32.7867 32.1789 33.2933 32.77C32.6178 33.0233 32.0689 33.4455 31.6467 34.0366L31.14 33.91C30.38 33.91 29.7256 34.1844 29.1767 34.7333C28.6278 35.2822 28.3533 35.9155 28.3533 36.6333C28.3533 37.3511 28.6489 37.9633 29.24 38.47C28.48 38.8078 27.8467 39.3144 27.34 39.99C26.8333 40.6655 26.4956 41.4678 26.3267 42.3966C26.3267 42.5655 26.39 42.7133 26.5167 42.84C26.6433 42.9666 26.7911 43.03 26.96 43.03H38.8667V50.8833C35.7422 49.3633 31.3089 48.6033 25.5667 48.6033V24.9166ZM56.7267 51.5166H42.16C41.9911 51.5166 41.8433 51.58 41.7167 51.7066C41.59 51.8333 41.5267 51.9389 41.5267 52.0233V52.6566C41.5267 52.91 41.4633 53.1 41.3367 53.2266C41.21 53.3533 41.02 53.4166 40.7667 53.4166H38.2333C38.0644 53.4166 37.8956 53.3533 37.7267 53.2266C37.5578 53.1 37.4733 52.91 37.4733 52.6566V52.0233C37.4733 51.9389 37.41 51.8333 37.2833 51.7066C37.1567 51.58 37.0511 51.5166 36.9667 51.5166H22.2733V27.07H24.4267V49.11C24.4267 49.2789 24.49 49.4266 24.6167 49.5533C24.7433 49.68 24.8911 49.7433 25.06 49.7433C31.3933 49.7433 36.1222 50.63 39.2467 52.4033C39.3311 52.4878 39.4156 52.53 39.5 52.53C39.5844 52.53 39.6689 52.4878 39.7533 52.4033C42.8778 50.63 47.6067 49.7433 53.94 49.7433C54.1089 49.7433 54.2567 49.68 54.3833 49.5533C54.51 49.4266 54.5733 49.2789 54.5733 49.11V27.07H56.7267V51.5166ZM51.5333 45.0566C51.5333 45.2255 51.47 45.3733 51.3433 45.5C51.2167 45.6266 51.0689 45.69 50.9 45.69C47.6911 45.8589 44.9889 46.2811 42.7933 46.9566H42.54C42.2867 46.9566 42.1178 46.8511 42.0333 46.64C41.9489 46.4289 41.9489 46.26 42.0333 46.1333C42.1178 46.0066 42.2444 45.9011 42.4133 45.8166C44.7778 45.1411 47.6067 44.7189 50.9 44.55C51.0689 44.55 51.1956 44.5922 51.28 44.6766C51.3644 44.7611 51.4489 44.8878 51.5333 45.0566ZM36.9667 46.5766C36.8822 46.83 36.7133 46.9566 36.46 46.9566H36.2067C34.0111 46.2811 31.3089 45.8589 28.1 45.69C27.9311 45.69 27.7833 45.6266 27.6567 45.5C27.53 45.3733 27.4878 45.2255 27.53 45.0566C27.5722 44.8878 27.6356 44.7611 27.72 44.6766C27.8044 44.5922 27.9311 44.55 28.1 44.55C31.3933 44.7189 34.2222 45.1411 36.5867 45.8166C36.7556 45.9011 36.8822 46.0066 36.9667 46.1333C37.0511 46.26 37.0511 46.4078 36.9667 46.5766Z" fill="#0E2A46"/>
</svg>
