<svg width="49" height="43" viewBox="0 0 49 43" fill="none" xmlns="http://www.w3.org/2000/svg">
<path d="M43.6734 0.939453C44.9234 0.939453 45.9859 1.37695 46.8609 2.25195C47.7359 3.12695 48.1734 4.18945 48.1734 5.43945V27.9395C48.1734 32.0645 46.7047 35.5957 43.7672 38.5332C40.8297 41.4707 37.2984 42.9395 33.1734 42.9395H32.4234C31.7984 42.9395 31.2672 42.7207 30.8297 42.2832C30.3922 41.8457 30.1734 41.3145 30.1734 40.6895V36.1895C30.1734 35.5645 30.3922 35.0332 30.8297 34.5957C31.2672 34.1582 31.7984 33.9395 32.4234 33.9395H33.1734C34.7984 33.9395 36.2047 33.3457 37.3922 32.1582C38.5797 30.9707 39.1734 29.5645 39.1734 27.9395V21.9395H31.6734C30.4234 21.9395 29.3609 21.502 28.4859 20.627C27.6109 19.752 27.1734 18.6895 27.1734 17.4395V5.43945C27.1734 4.18945 27.6109 3.12695 28.4859 2.25195C29.3609 1.37695 30.4234 0.939453 31.6734 0.939453H43.6734ZM16.6734 0.939453C17.9234 0.939453 18.9859 1.37695 19.8609 2.25195C20.7359 3.12695 21.1734 4.18945 21.1734 5.43945V27.9395C21.1734 32.0645 19.7047 35.5957 16.7672 38.5332C13.8297 41.4707 10.2984 42.9395 6.17344 42.9395H5.42344C4.79844 42.9395 4.26719 42.7207 3.82969 42.2832C3.39219 41.8457 3.17344 41.3145 3.17344 40.6895V36.1895C3.17344 35.5645 3.39219 35.0332 3.82969 34.5957C4.26719 34.1582 4.79844 33.9395 5.42344 33.9395H6.17344C7.79844 33.9395 9.20469 33.3457 10.3922 32.1582C11.5797 30.9707 12.1734 29.5645 12.1734 27.9395V21.9395H4.67344C3.42344 21.9395 2.36094 21.502 1.48594 20.627C0.610937 19.752 0.173437 18.6895 0.173437 17.4395V5.43945C0.173437 4.18945 0.610937 3.12695 1.48594 2.25195C2.36094 1.37695 3.42344 0.939453 4.67344 0.939453H16.6734Z" fill="#704FE6"/>
</svg>
