<svg width="17" height="19" viewBox="0 0 17 19" fill="none" xmlns="http://www.w3.org/2000/svg">
<path d="M16.25 12.6763C16.25 12.9575 16.1445 13.1802 15.9336 13.3442C15.8633 13.6021 15.8281 14.0356 15.8281 14.645C15.8281 15.2544 15.8633 15.688 15.9336 15.9458C16.1445 16.1333 16.25 16.356 16.25 16.6138V17.1763C16.25 17.4106 16.168 17.6099 16.0039 17.7739C15.8398 17.938 15.6406 18.02 15.4062 18.02H3.875C2.9375 18.02 2.14062 17.6919 1.48438 17.0356C0.828125 16.3794 0.5 15.5825 0.5 14.645V3.39502C0.5 2.45752 0.828125 1.66064 1.48438 1.00439C2.14062 0.348145 2.9375 0.0200195 3.875 0.0200195H15.4062C15.6406 0.0200195 15.8398 0.102051 16.0039 0.266113C16.168 0.430176 16.25 0.629395 16.25 0.86377V12.6763ZM5 4.73096V5.43408C5 5.57471 5.07031 5.64502 5.21094 5.64502H12.6641C12.8047 5.64502 12.875 5.57471 12.875 5.43408V4.73096C12.875 4.59033 12.8047 4.52002 12.6641 4.52002H5.21094C5.07031 4.52002 5 4.59033 5 4.73096ZM5 6.98096V7.68408C5 7.82471 5.07031 7.89502 5.21094 7.89502H12.6641C12.8047 7.89502 12.875 7.82471 12.875 7.68408V6.98096C12.875 6.84033 12.8047 6.77002 12.6641 6.77002H5.21094C5.07031 6.77002 5 6.84033 5 6.98096ZM13.8945 15.77C13.8242 15.02 13.8242 14.27 13.8945 13.52H3.875C3.57031 13.52 3.30078 13.6372 3.06641 13.8716C2.85547 14.0825 2.75 14.3403 2.75 14.645C2.75 14.9497 2.85547 15.2192 3.06641 15.4536C3.30078 15.6646 3.57031 15.77 3.875 15.77H13.8945Z" fill="#FF9500"/>
</svg>
