<svg width="245" height="240" viewBox="0 0 245 240" fill="none" xmlns="http://www.w3.org/2000/svg">
<rect x="2.7002" y="2.56201" width="239" height="234.838" rx="117.419" fill="#FFD25D"/>
<rect x="2.7002" y="2.56201" width="239" height="234.838" rx="117.419" stroke="white" stroke-width="5"/>
<path d="M107.49 99.112C104.557 99.112 101.99 98.6787 99.7901 97.812C97.6234 96.9453 95.9234 95.6787 94.6901 94.012C93.4901 92.3453 92.8901 90.312 92.8901 87.912C92.8901 86.3787 93.1401 85.0287 93.6401 83.862C94.1401 82.662 94.8401 81.6453 95.7401 80.812C96.6734 79.9787 97.7568 79.3287 98.9901 78.862V78.212C98.0568 77.812 97.2068 77.2787 96.4401 76.612C95.6734 75.912 95.0734 75.062 94.6401 74.062C94.2068 73.062 93.9901 71.8953 93.9901 70.562C93.9901 68.2953 94.5734 66.4287 95.7401 64.962C96.9401 63.4953 98.5568 62.3953 100.59 61.662C102.657 60.8953 104.957 60.512 107.49 60.512C110.09 60.512 112.407 60.8953 114.44 61.662C116.473 62.3953 118.073 63.4953 119.24 64.962C120.407 66.4287 120.99 68.2953 120.99 70.562C120.99 71.8953 120.773 73.062 120.34 74.062C119.94 75.062 119.357 75.912 118.59 76.612C117.823 77.2787 116.957 77.812 115.99 78.212V78.862C117.223 79.3287 118.307 79.9787 119.24 80.812C120.173 81.6453 120.89 82.662 121.39 83.862C121.89 85.0287 122.14 86.3787 122.14 87.912C122.14 90.312 121.523 92.3453 120.29 94.012C119.09 95.6787 117.39 96.9453 115.19 97.812C113.023 98.6787 110.457 99.112 107.49 99.112ZM107.49 92.362C108.857 92.362 110.04 92.162 111.04 91.762C112.04 91.362 112.823 90.762 113.39 89.962C113.957 89.1287 114.24 88.1287 114.24 86.962C114.24 85.7953 113.957 84.8287 113.39 84.062C112.857 83.262 112.073 82.662 111.04 82.262C110.04 81.8287 108.857 81.612 107.49 81.612C106.157 81.612 104.973 81.8287 103.94 82.262C102.94 82.662 102.173 83.262 101.64 84.062C101.107 84.8287 100.84 85.7953 100.84 86.962C100.84 88.1287 101.107 89.1287 101.64 89.962C102.173 90.762 102.94 91.362 103.94 91.762C104.973 92.162 106.157 92.362 107.49 92.362ZM107.49 75.562C109.223 75.562 110.59 75.212 111.59 74.512C112.59 73.7787 113.09 72.7287 113.09 71.362C113.09 69.9953 112.59 68.962 111.59 68.262C110.59 67.562 109.223 67.212 107.49 67.212C105.757 67.212 104.39 67.5787 103.39 68.312C102.39 69.012 101.89 70.0287 101.89 71.362C101.89 72.7287 102.39 73.7787 103.39 74.512C104.423 75.212 105.79 75.562 107.49 75.562ZM135.54 93.412V68.262H142.64V93.412H135.54ZM126.69 84.112V77.612H151.54V84.112H126.69Z" fill="#333931"/>
<path d="M75.9633 126.462L70.1633 115.312H72.7133L77.6133 124.862L76.6633 124.587H79.6133L78.6133 124.862L83.2133 115.312H85.6133L80.1633 126.462H75.9633ZM76.8633 133.562V125.962H79.2633V133.562H76.8633ZM92.6553 134.012C91.4887 134.012 90.4803 133.812 89.6303 133.412C88.7803 133.012 88.0887 132.487 87.5553 131.837C87.022 131.17 86.622 130.429 86.3553 129.612C86.1053 128.795 85.9803 127.962 85.9803 127.112V126.662C85.9803 125.795 86.1053 124.954 86.3553 124.137C86.622 123.32 87.022 122.587 87.5553 121.937C88.0887 121.27 88.7637 120.745 89.5803 120.362C90.4137 119.962 91.3887 119.762 92.5053 119.762C93.9553 119.762 95.147 120.079 96.0803 120.712C97.0303 121.329 97.7303 122.129 98.1803 123.112C98.647 124.095 98.8803 125.145 98.8803 126.262V127.337H87.0303V125.537H97.1303L96.5803 126.512C96.5803 125.562 96.4303 124.745 96.1303 124.062C95.8303 123.362 95.3803 122.82 94.7803 122.437C94.1803 122.054 93.422 121.862 92.5053 121.862C91.5553 121.862 90.7637 122.079 90.1303 122.512C89.5137 122.945 89.047 123.537 88.7303 124.287C88.4303 125.037 88.2803 125.904 88.2803 126.887C88.2803 127.837 88.4303 128.695 88.7303 129.462C89.047 130.212 89.5303 130.812 90.1803 131.262C90.8303 131.695 91.6553 131.912 92.6553 131.912C93.7053 131.912 94.5553 131.679 95.2053 131.212C95.872 130.745 96.272 130.204 96.4053 129.587H98.6553C98.472 130.504 98.1053 131.295 97.5553 131.962C97.0053 132.629 96.3137 133.137 95.4803 133.487C94.647 133.837 93.7053 134.012 92.6553 134.012ZM110.363 133.562V129.562H109.963V124.937C109.963 124.02 109.721 123.329 109.238 122.862C108.771 122.395 108.08 122.162 107.163 122.162C106.646 122.162 106.113 122.17 105.563 122.187C105.013 122.204 104.488 122.22 103.988 122.237C103.488 122.254 103.055 122.279 102.688 122.312V120.212C103.055 120.179 103.438 120.154 103.838 120.137C104.255 120.104 104.68 120.087 105.113 120.087C105.546 120.07 105.963 120.062 106.363 120.062C107.73 120.062 108.846 120.229 109.713 120.562C110.58 120.879 111.221 121.404 111.638 122.137C112.055 122.87 112.263 123.862 112.263 125.112V133.562H110.363ZM105.988 133.912C104.988 133.912 104.121 133.745 103.388 133.412C102.671 133.062 102.113 132.562 101.713 131.912C101.33 131.262 101.138 130.479 101.138 129.562C101.138 128.612 101.346 127.82 101.763 127.187C102.196 126.554 102.821 126.079 103.638 125.762C104.455 125.429 105.438 125.262 106.588 125.262H110.213V127.062H106.488C105.521 127.062 104.78 127.295 104.263 127.762C103.746 128.229 103.488 128.829 103.488 129.562C103.488 130.295 103.746 130.887 104.263 131.337C104.78 131.787 105.521 132.012 106.488 132.012C107.055 132.012 107.596 131.912 108.113 131.712C108.63 131.495 109.055 131.145 109.388 130.662C109.738 130.162 109.93 129.479 109.963 128.612L110.613 129.562C110.53 130.512 110.296 131.312 109.913 131.962C109.546 132.595 109.03 133.079 108.363 133.412C107.713 133.745 106.921 133.912 105.988 133.912ZM116.668 133.562V120.212H118.568V125.712H118.468C118.468 123.762 118.893 122.337 119.743 121.437C120.609 120.52 121.901 120.062 123.618 120.062H124.068V122.212H123.218C121.884 122.212 120.859 122.57 120.143 123.287C119.426 123.987 119.068 125.004 119.068 126.337V133.562H116.668ZM131.297 133.962C129.547 133.962 128.188 133.587 127.222 132.837C126.272 132.087 125.78 131.062 125.747 129.762H127.997C128.03 130.279 128.288 130.77 128.772 131.237C129.272 131.687 130.113 131.912 131.297 131.912C132.363 131.912 133.18 131.704 133.747 131.287C134.313 130.854 134.597 130.329 134.597 129.712C134.597 129.162 134.388 128.737 133.972 128.437C133.555 128.12 132.88 127.912 131.947 127.812L130.497 127.662C129.23 127.529 128.197 127.154 127.397 126.537C126.597 125.904 126.197 125.02 126.197 123.887C126.197 123.037 126.413 122.312 126.847 121.712C127.28 121.095 127.88 120.629 128.647 120.312C129.413 119.979 130.297 119.812 131.297 119.812C132.797 119.812 134.013 120.145 134.947 120.812C135.88 121.479 136.363 122.47 136.397 123.787H134.147C134.13 123.254 133.88 122.804 133.397 122.437C132.93 122.054 132.23 121.862 131.297 121.862C130.363 121.862 129.655 122.054 129.172 122.437C128.688 122.82 128.447 123.304 128.447 123.887C128.447 124.387 128.613 124.787 128.947 125.087C129.297 125.387 129.863 125.579 130.647 125.662L132.097 125.812C133.53 125.962 134.68 126.362 135.547 127.012C136.413 127.645 136.847 128.545 136.847 129.712C136.847 130.545 136.605 131.287 136.122 131.937C135.655 132.57 135.005 133.07 134.172 133.437C133.338 133.787 132.38 133.962 131.297 133.962ZM154.539 134.012C152.905 134.012 151.497 133.72 150.314 133.137C149.13 132.554 148.155 131.787 147.389 130.837C146.622 129.887 146.047 128.87 145.664 127.787C145.297 126.704 145.114 125.662 145.114 124.662V124.112C145.114 123.029 145.305 121.937 145.689 120.837C146.072 119.737 146.655 118.737 147.439 117.837C148.222 116.92 149.197 116.187 150.364 115.637C151.547 115.087 152.939 114.812 154.539 114.812C156.139 114.812 157.522 115.087 158.689 115.637C159.872 116.187 160.855 116.92 161.639 117.837C162.422 118.737 163.005 119.737 163.389 120.837C163.772 121.937 163.964 123.029 163.964 124.112V124.662C163.964 125.662 163.772 126.704 163.389 127.787C163.022 128.87 162.455 129.887 161.689 130.837C160.922 131.787 159.947 132.554 158.764 133.137C157.58 133.72 156.172 134.012 154.539 134.012ZM154.539 131.762C155.605 131.762 156.564 131.562 157.414 131.162C158.28 130.762 159.014 130.22 159.614 129.537C160.214 128.837 160.672 128.054 160.989 127.187C161.305 126.304 161.464 125.379 161.464 124.412C161.464 123.395 161.305 122.445 160.989 121.562C160.672 120.679 160.214 119.904 159.614 119.237C159.014 118.554 158.28 118.02 157.414 117.637C156.564 117.254 155.605 117.062 154.539 117.062C153.472 117.062 152.505 117.254 151.639 117.637C150.789 118.02 150.064 118.554 149.464 119.237C148.864 119.904 148.405 120.679 148.089 121.562C147.772 122.445 147.614 123.395 147.614 124.412C147.614 125.379 147.772 126.304 148.089 127.187C148.405 128.054 148.864 128.837 149.464 129.537C150.064 130.22 150.789 130.762 151.639 131.162C152.505 131.562 153.472 131.762 154.539 131.762ZM167.994 133.562V119.537C167.994 118.054 168.386 116.962 169.169 116.262C169.953 115.562 171.103 115.212 172.619 115.212H174.269V117.212H172.219C171.603 117.212 171.128 117.387 170.794 117.737C170.461 118.07 170.294 118.537 170.294 119.137V133.562H167.994ZM166.144 122.162V120.362H174.519V122.162H166.144Z" fill="#333931"/>
<path d="M47.6309 172.062V153.812H50.0809V172.062H47.6309ZM49.5809 172.062V169.862H58.4309V172.062H49.5809ZM49.5809 163.887V161.687H57.6559V163.887H49.5809ZM49.5809 156.012V153.812H58.1809V156.012H49.5809ZM60.6711 172.062L65.4461 165.037L65.3711 165.537L60.8961 158.712H63.5461L66.7711 163.737H67.1211L70.1711 158.712H72.6461L68.4211 165.362L68.4961 164.912L73.4961 172.062H70.8461L67.0961 166.637H66.7461L63.1461 172.062H60.6711ZM76.2604 177.062V158.712H78.1604V164.487L77.7104 164.437C77.7937 163.004 78.0937 161.837 78.6104 160.937C79.1437 160.02 79.8354 159.345 80.6854 158.912C81.5354 158.479 82.4604 158.262 83.4604 158.262C84.427 158.262 85.302 158.445 86.0854 158.812C86.8854 159.179 87.5687 159.679 88.1354 160.312C88.702 160.945 89.1354 161.679 89.4354 162.512C89.7354 163.345 89.8854 164.229 89.8854 165.162V165.612C89.8854 166.545 89.727 167.429 89.4104 168.262C89.0937 169.095 88.6437 169.829 88.0604 170.462C87.4937 171.095 86.8104 171.595 86.0104 171.962C85.227 172.329 84.3604 172.512 83.4104 172.512C82.4604 172.512 81.552 172.304 80.6854 171.887C79.8187 171.47 79.102 170.795 78.5354 169.862C77.9687 168.929 77.6437 167.704 77.5604 166.187L78.6604 168.187V177.062H76.2604ZM83.0354 170.412C83.9354 170.412 84.7187 170.204 85.3854 169.787C86.052 169.354 86.5687 168.762 86.9354 168.012C87.302 167.245 87.4854 166.37 87.4854 165.387C87.4854 164.387 87.302 163.512 86.9354 162.762C86.5687 162.012 86.052 161.429 85.3854 161.012C84.7187 160.579 83.9354 160.362 83.0354 160.362C82.2354 160.362 81.4937 160.545 80.8104 160.912C80.127 161.262 79.577 161.779 79.1604 162.462C78.7604 163.129 78.5604 163.937 78.5604 164.887V166.037C78.5604 166.954 78.7687 167.737 79.1854 168.387C79.602 169.037 80.152 169.537 80.8354 169.887C81.5187 170.237 82.252 170.412 83.0354 170.412ZM99.1717 172.512C98.005 172.512 96.9967 172.312 96.1467 171.912C95.2967 171.512 94.605 170.987 94.0717 170.337C93.5383 169.67 93.1383 168.929 92.8717 168.112C92.6217 167.295 92.4967 166.462 92.4967 165.612V165.162C92.4967 164.295 92.6217 163.454 92.8717 162.637C93.1383 161.82 93.5383 161.087 94.0717 160.437C94.605 159.77 95.28 159.245 96.0967 158.862C96.93 158.462 97.905 158.262 99.0217 158.262C100.472 158.262 101.663 158.579 102.597 159.212C103.547 159.829 104.247 160.629 104.697 161.612C105.163 162.595 105.397 163.645 105.397 164.762V165.837H93.5467V164.037H103.647L103.097 165.012C103.097 164.062 102.947 163.245 102.647 162.562C102.347 161.862 101.897 161.32 101.297 160.937C100.697 160.554 99.9383 160.362 99.0217 160.362C98.0717 160.362 97.28 160.579 96.6467 161.012C96.03 161.445 95.5633 162.037 95.2467 162.787C94.9467 163.537 94.7967 164.404 94.7967 165.387C94.7967 166.337 94.9467 167.195 95.2467 167.962C95.5633 168.712 96.0467 169.312 96.6967 169.762C97.3467 170.195 98.1717 170.412 99.1717 170.412C100.222 170.412 101.072 170.179 101.722 169.712C102.388 169.245 102.788 168.704 102.922 168.087H105.172C104.988 169.004 104.622 169.795 104.072 170.462C103.522 171.129 102.83 171.637 101.997 171.987C101.163 172.337 100.222 172.512 99.1717 172.512ZM108.804 172.062V158.712H110.704V164.212H110.604C110.604 162.262 111.029 160.837 111.879 159.937C112.746 159.02 114.038 158.562 115.754 158.562H116.204V160.712H115.354C114.021 160.712 112.996 161.07 112.279 161.787C111.563 162.487 111.204 163.504 111.204 164.837V172.062H108.804ZM119.708 172.062V158.712H122.108V172.062H119.708ZM117.658 160.612V158.712H122.108V160.612H117.658ZM120.383 156.562C119.85 156.562 119.45 156.42 119.183 156.137C118.933 155.854 118.808 155.495 118.808 155.062C118.808 154.629 118.933 154.27 119.183 153.987C119.45 153.704 119.85 153.562 120.383 153.562C120.917 153.562 121.308 153.704 121.558 153.987C121.825 154.27 121.958 154.629 121.958 155.062C121.958 155.495 121.825 155.854 121.558 156.137C121.308 156.42 120.917 156.562 120.383 156.562ZM132.424 172.512C131.257 172.512 130.249 172.312 129.399 171.912C128.549 171.512 127.857 170.987 127.324 170.337C126.79 169.67 126.39 168.929 126.124 168.112C125.874 167.295 125.749 166.462 125.749 165.612V165.162C125.749 164.295 125.874 163.454 126.124 162.637C126.39 161.82 126.79 161.087 127.324 160.437C127.857 159.77 128.532 159.245 129.349 158.862C130.182 158.462 131.157 158.262 132.274 158.262C133.724 158.262 134.915 158.579 135.849 159.212C136.799 159.829 137.499 160.629 137.949 161.612C138.415 162.595 138.649 163.645 138.649 164.762V165.837H126.799V164.037H136.899L136.349 165.012C136.349 164.062 136.199 163.245 135.899 162.562C135.599 161.862 135.149 161.32 134.549 160.937C133.949 160.554 133.19 160.362 132.274 160.362C131.324 160.362 130.532 160.579 129.899 161.012C129.282 161.445 128.815 162.037 128.499 162.787C128.199 163.537 128.049 164.404 128.049 165.387C128.049 166.337 128.199 167.195 128.499 167.962C128.815 168.712 129.299 169.312 129.949 169.762C130.599 170.195 131.424 170.412 132.424 170.412C133.474 170.412 134.324 170.179 134.974 169.712C135.64 169.245 136.04 168.704 136.174 168.087H138.424C138.24 169.004 137.874 169.795 137.324 170.462C136.774 171.129 136.082 171.637 135.249 171.987C134.415 172.337 133.474 172.512 132.424 172.512ZM142.056 172.062V158.712H143.956V164.437H143.656C143.656 163.12 143.831 162.012 144.181 161.112C144.548 160.195 145.098 159.504 145.831 159.037C146.565 158.554 147.49 158.312 148.606 158.312H148.706C150.39 158.312 151.631 158.837 152.431 159.887C153.248 160.937 153.656 162.454 153.656 164.437V172.062H151.256V163.937C151.256 162.904 150.965 162.079 150.381 161.462C149.798 160.829 148.998 160.512 147.981 160.512C146.931 160.512 146.081 160.837 145.431 161.487C144.781 162.137 144.456 163.004 144.456 164.087V172.062H142.056ZM163.772 172.512C162.622 172.512 161.622 172.312 160.772 171.912C159.939 171.512 159.247 170.979 158.697 170.312C158.147 169.629 157.731 168.879 157.447 168.062C157.181 167.245 157.047 166.429 157.047 165.612V165.162C157.047 164.312 157.181 163.479 157.447 162.662C157.731 161.845 158.147 161.112 158.697 160.462C159.264 159.795 159.964 159.262 160.797 158.862C161.631 158.462 162.606 158.262 163.722 158.262C164.839 158.262 165.839 158.47 166.722 158.887C167.622 159.304 168.339 159.895 168.872 160.662C169.422 161.412 169.731 162.304 169.797 163.337H167.497C167.381 162.504 166.997 161.812 166.347 161.262C165.697 160.695 164.822 160.412 163.722 160.412C162.772 160.412 161.981 160.629 161.347 161.062C160.714 161.495 160.239 162.087 159.922 162.837C159.606 163.587 159.447 164.437 159.447 165.387C159.447 166.304 159.606 167.145 159.922 167.912C160.239 168.662 160.714 169.262 161.347 169.712C161.997 170.145 162.806 170.362 163.772 170.362C164.522 170.362 165.172 170.229 165.722 169.962C166.272 169.695 166.714 169.337 167.047 168.887C167.381 168.437 167.581 167.929 167.647 167.362H169.947C169.897 168.412 169.589 169.32 169.022 170.087C168.472 170.854 167.739 171.454 166.822 171.887C165.922 172.304 164.906 172.512 163.772 172.512ZM178.884 172.512C177.717 172.512 176.709 172.312 175.859 171.912C175.009 171.512 174.317 170.987 173.784 170.337C173.25 169.67 172.85 168.929 172.584 168.112C172.334 167.295 172.209 166.462 172.209 165.612V165.162C172.209 164.295 172.334 163.454 172.584 162.637C172.85 161.82 173.25 161.087 173.784 160.437C174.317 159.77 174.992 159.245 175.809 158.862C176.642 158.462 177.617 158.262 178.734 158.262C180.184 158.262 181.375 158.579 182.309 159.212C183.259 159.829 183.959 160.629 184.409 161.612C184.875 162.595 185.109 163.645 185.109 164.762V165.837H173.259V164.037H183.359L182.809 165.012C182.809 164.062 182.659 163.245 182.359 162.562C182.059 161.862 181.609 161.32 181.009 160.937C180.409 160.554 179.65 160.362 178.734 160.362C177.784 160.362 176.992 160.579 176.359 161.012C175.742 161.445 175.275 162.037 174.959 162.787C174.659 163.537 174.509 164.404 174.509 165.387C174.509 166.337 174.659 167.195 174.959 167.962C175.275 168.712 175.759 169.312 176.409 169.762C177.059 170.195 177.884 170.412 178.884 170.412C179.934 170.412 180.784 170.179 181.434 169.712C182.1 169.245 182.5 168.704 182.634 168.087H184.884C184.7 169.004 184.334 169.795 183.784 170.462C183.234 171.129 182.542 171.637 181.709 171.987C180.875 172.337 179.934 172.512 178.884 172.512ZM192.891 172.462C191.141 172.462 189.783 172.087 188.816 171.337C187.866 170.587 187.375 169.562 187.341 168.262H189.591C189.625 168.779 189.883 169.27 190.366 169.737C190.866 170.187 191.708 170.412 192.891 170.412C193.958 170.412 194.775 170.204 195.341 169.787C195.908 169.354 196.191 168.829 196.191 168.212C196.191 167.662 195.983 167.237 195.566 166.937C195.15 166.62 194.475 166.412 193.541 166.312L192.091 166.162C190.825 166.029 189.791 165.654 188.991 165.037C188.191 164.404 187.791 163.52 187.791 162.387C187.791 161.537 188.008 160.812 188.441 160.212C188.875 159.595 189.475 159.129 190.241 158.812C191.008 158.479 191.891 158.312 192.891 158.312C194.391 158.312 195.608 158.645 196.541 159.312C197.475 159.979 197.958 160.97 197.991 162.287H195.741C195.725 161.754 195.475 161.304 194.991 160.937C194.525 160.554 193.825 160.362 192.891 160.362C191.958 160.362 191.25 160.554 190.766 160.937C190.283 161.32 190.041 161.804 190.041 162.387C190.041 162.887 190.208 163.287 190.541 163.587C190.891 163.887 191.458 164.079 192.241 164.162L193.691 164.312C195.125 164.462 196.275 164.862 197.141 165.512C198.008 166.145 198.441 167.045 198.441 168.212C198.441 169.045 198.2 169.787 197.716 170.437C197.25 171.07 196.6 171.57 195.766 171.937C194.933 172.287 193.975 172.462 192.891 172.462Z" fill="#333931"/>
</svg>
